<mxfile host="Electron" agent="Mozilla/5.0 (Windows NT 10.0; Win64; x64) AppleWebKit/537.36 (KHTML, like Gecko) draw.io/24.7.17 Chrome/128.0.6613.36 Electron/32.0.1 Safari/537.36" version="24.7.17">
  <diagram name="Страница — 1" id="hPPcrUByunXkYxeMK2Q-">
    <mxGraphModel dx="3032" dy="1089" grid="0" gridSize="10" guides="1" tooltips="1" connect="1" arrows="1" fold="1" page="0" pageScale="1" pageWidth="827" pageHeight="1169" math="0" shadow="0">
      <root>
        <mxCell id="0" />
        <mxCell id="1" parent="0" />
        <mxCell id="ef_AyhjqfBPVGRUeGjaf-82" value="" style="edgeStyle=orthogonalEdgeStyle;rounded=0;orthogonalLoop=1;jettySize=auto;html=1;" parent="1" source="ef_AyhjqfBPVGRUeGjaf-68" target="ef_AyhjqfBPVGRUeGjaf-80" edge="1">
          <mxGeometry relative="1" as="geometry" />
        </mxCell>
        <mxCell id="ef_AyhjqfBPVGRUeGjaf-68" value="(double x = a; x &amp;lt; b + h; x += h)" style="shape=hexagon;perimeter=hexagonPerimeter2;whiteSpace=wrap;html=1;fixedSize=1;" parent="1" vertex="1">
          <mxGeometry x="933.75" y="818" width="247" height="61" as="geometry" />
        </mxCell>
        <mxCell id="ef_AyhjqfBPVGRUeGjaf-71" value="Конец" style="strokeWidth=1;html=1;shape=mxgraph.flowchart.terminator;whiteSpace=wrap;" parent="1" vertex="1">
          <mxGeometry x="934.5" y="1101" width="245.5" height="60" as="geometry" />
        </mxCell>
        <mxCell id="3CCN2-07_qu0L879t1h9-7" style="edgeStyle=orthogonalEdgeStyle;rounded=0;orthogonalLoop=1;jettySize=auto;html=1;entryX=0;entryY=0.5;entryDx=0;entryDy=0;" parent="1" source="ef_AyhjqfBPVGRUeGjaf-79" target="ef_AyhjqfBPVGRUeGjaf-68" edge="1">
          <mxGeometry relative="1" as="geometry">
            <Array as="points">
              <mxPoint x="914" y="1035" />
              <mxPoint x="914" y="848" />
            </Array>
          </mxGeometry>
        </mxCell>
        <mxCell id="ef_AyhjqfBPVGRUeGjaf-79" value="&amp;nbsp;const long double series_sum = sum_series(x, eps);" style="shape=process;whiteSpace=wrap;html=1;backgroundOutline=1;" parent="1" vertex="1">
          <mxGeometry x="935.5" y="1000" width="242.5" height="70" as="geometry" />
        </mxCell>
        <mxCell id="ef_AyhjqfBPVGRUeGjaf-83" value="" style="edgeStyle=orthogonalEdgeStyle;rounded=0;orthogonalLoop=1;jettySize=auto;html=1;" parent="1" source="ef_AyhjqfBPVGRUeGjaf-80" target="ef_AyhjqfBPVGRUeGjaf-79" edge="1">
          <mxGeometry relative="1" as="geometry" />
        </mxCell>
        <mxCell id="ef_AyhjqfBPVGRUeGjaf-80" value="const long double func_val = expl(2 * x);" style="rounded=0;whiteSpace=wrap;html=1;" parent="1" vertex="1">
          <mxGeometry x="935.25" y="912" width="244" height="60" as="geometry" />
        </mxCell>
        <mxCell id="ef_AyhjqfBPVGRUeGjaf-98" style="edgeStyle=orthogonalEdgeStyle;rounded=0;orthogonalLoop=1;jettySize=auto;html=1;entryX=1;entryY=0.5;entryDx=0;entryDy=0;exitX=1;exitY=0.5;exitDx=0;exitDy=0;entryPerimeter=0;" parent="1" source="ef_AyhjqfBPVGRUeGjaf-102" target="ef_AyhjqfBPVGRUeGjaf-106" edge="1">
          <mxGeometry relative="1" as="geometry">
            <mxPoint x="-15.5" y="1073" as="sourcePoint" />
            <mxPoint x="54.5" y="1253" as="targetPoint" />
            <Array as="points">
              <mxPoint x="77" y="1067" />
              <mxPoint x="77" y="1161" />
            </Array>
          </mxGeometry>
        </mxCell>
        <mxCell id="ef_AyhjqfBPVGRUeGjaf-99" value="no" style="edgeLabel;html=1;align=center;verticalAlign=middle;resizable=0;points=[];" parent="ef_AyhjqfBPVGRUeGjaf-98" vertex="1" connectable="0">
          <mxGeometry x="-0.6381" relative="1" as="geometry">
            <mxPoint as="offset" />
          </mxGeometry>
        </mxCell>
        <mxCell id="ef_AyhjqfBPVGRUeGjaf-100" style="edgeStyle=orthogonalEdgeStyle;rounded=0;orthogonalLoop=1;jettySize=auto;html=1;entryX=0;entryY=0.5;entryDx=0;entryDy=0;exitX=0;exitY=0.5;exitDx=0;exitDy=0;entryPerimeter=0;" parent="1" source="ef_AyhjqfBPVGRUeGjaf-102" target="ef_AyhjqfBPVGRUeGjaf-105" edge="1">
          <mxGeometry relative="1" as="geometry">
            <mxPoint x="-295.5" y="1073" as="sourcePoint" />
            <mxPoint x="-370.5" y="1253" as="targetPoint" />
            <Array as="points">
              <mxPoint x="-402" y="1067" />
              <mxPoint x="-402" y="1161" />
            </Array>
          </mxGeometry>
        </mxCell>
        <mxCell id="ef_AyhjqfBPVGRUeGjaf-101" value="yes" style="edgeLabel;html=1;align=center;verticalAlign=middle;resizable=0;points=[];" parent="ef_AyhjqfBPVGRUeGjaf-100" vertex="1" connectable="0">
          <mxGeometry x="-0.5173" y="-4" relative="1" as="geometry">
            <mxPoint as="offset" />
          </mxGeometry>
        </mxCell>
        <mxCell id="ef_AyhjqfBPVGRUeGjaf-102" value="(value &amp;lt; DBL_EPSILON)" style="rhombus;whiteSpace=wrap;html=1;" parent="1" vertex="1">
          <mxGeometry x="-299" y="992" width="290" height="150" as="geometry" />
        </mxCell>
        <mxCell id="ef_AyhjqfBPVGRUeGjaf-103" value="" style="edgeStyle=orthogonalEdgeStyle;rounded=0;orthogonalLoop=1;jettySize=auto;html=1;" parent="1" source="ef_AyhjqfBPVGRUeGjaf-104" target="ef_AyhjqfBPVGRUeGjaf-108" edge="1">
          <mxGeometry relative="1" as="geometry" />
        </mxCell>
        <mxCell id="ef_AyhjqfBPVGRUeGjaf-104" value="&lt;div style=&quot;background-color: rgb(255, 255, 255);&quot;&gt;&lt;pre style=&quot;&quot;&gt;&lt;font style=&quot;&quot;&gt;&lt;font face=&quot;Helvetica&quot;&gt;&lt;span style=&quot;white-space: normal;&quot;&gt;get_positive_double&lt;/span&gt;&lt;/font&gt;&lt;font color=&quot;#202020&quot; face=&quot;JetBrains Mono, monospace&quot;&gt;&lt;br&gt;&lt;/font&gt;&lt;/font&gt;&lt;/pre&gt;&lt;/div&gt;" style="strokeWidth=1;html=1;shape=mxgraph.flowchart.terminator;whiteSpace=wrap;" parent="1" vertex="1">
          <mxGeometry x="-299.5" y="820" width="291" height="60" as="geometry" />
        </mxCell>
        <mxCell id="ef_AyhjqfBPVGRUeGjaf-105" value="&lt;font style=&quot;font-size: 12px;&quot;&gt;abort();&lt;/font&gt;" style="strokeWidth=1;html=1;shape=mxgraph.flowchart.terminator;whiteSpace=wrap;" parent="1" vertex="1">
          <mxGeometry x="-381" y="1131" width="199" height="60" as="geometry" />
        </mxCell>
        <mxCell id="ef_AyhjqfBPVGRUeGjaf-106" value="&lt;font style=&quot;font-size: 12px;&quot;&gt;value;&lt;/font&gt;" style="strokeWidth=1;html=1;shape=mxgraph.flowchart.terminator;whiteSpace=wrap;" parent="1" vertex="1">
          <mxGeometry x="-130" y="1131" width="189" height="60" as="geometry" />
        </mxCell>
        <mxCell id="ef_AyhjqfBPVGRUeGjaf-107" value="" style="edgeStyle=orthogonalEdgeStyle;rounded=0;orthogonalLoop=1;jettySize=auto;html=1;" parent="1" source="ef_AyhjqfBPVGRUeGjaf-108" target="ef_AyhjqfBPVGRUeGjaf-102" edge="1">
          <mxGeometry relative="1" as="geometry" />
        </mxCell>
        <mxCell id="ef_AyhjqfBPVGRUeGjaf-108" value="const double value = double_input();" style="shape=process;whiteSpace=wrap;html=1;backgroundOutline=1;" parent="1" vertex="1">
          <mxGeometry x="-299" y="906" width="291" height="60" as="geometry" />
        </mxCell>
        <mxCell id="ef_AyhjqfBPVGRUeGjaf-120" style="edgeStyle=orthogonalEdgeStyle;rounded=0;orthogonalLoop=1;jettySize=auto;html=1;entryX=1;entryY=0.5;entryDx=0;entryDy=0;exitX=1;exitY=0.5;exitDx=0;exitDy=0;entryPerimeter=0;" parent="1" source="ef_AyhjqfBPVGRUeGjaf-124" target="ef_AyhjqfBPVGRUeGjaf-128" edge="1">
          <mxGeometry relative="1" as="geometry">
            <mxPoint x="-535.55" y="1073" as="sourcePoint" />
            <mxPoint x="-465.54999999999995" y="1253" as="targetPoint" />
            <Array as="points">
              <mxPoint x="-443.04999999999995" y="1067" />
              <mxPoint x="-443.04999999999995" y="1161" />
            </Array>
          </mxGeometry>
        </mxCell>
        <mxCell id="ef_AyhjqfBPVGRUeGjaf-121" value="no" style="edgeLabel;html=1;align=center;verticalAlign=middle;resizable=0;points=[];" parent="ef_AyhjqfBPVGRUeGjaf-120" vertex="1" connectable="0">
          <mxGeometry x="-0.6381" relative="1" as="geometry">
            <mxPoint as="offset" />
          </mxGeometry>
        </mxCell>
        <mxCell id="ef_AyhjqfBPVGRUeGjaf-122" style="edgeStyle=orthogonalEdgeStyle;rounded=0;orthogonalLoop=1;jettySize=auto;html=1;entryX=0;entryY=0.5;entryDx=0;entryDy=0;exitX=0;exitY=0.5;exitDx=0;exitDy=0;entryPerimeter=0;" parent="1" source="ef_AyhjqfBPVGRUeGjaf-124" target="ef_AyhjqfBPVGRUeGjaf-127" edge="1">
          <mxGeometry relative="1" as="geometry">
            <mxPoint x="-815.55" y="1073" as="sourcePoint" />
            <mxPoint x="-890.55" y="1253" as="targetPoint" />
            <Array as="points">
              <mxPoint x="-922.05" y="1067" />
              <mxPoint x="-922.05" y="1161" />
            </Array>
          </mxGeometry>
        </mxCell>
        <mxCell id="ef_AyhjqfBPVGRUeGjaf-123" value="yes" style="edgeLabel;html=1;align=center;verticalAlign=middle;resizable=0;points=[];" parent="ef_AyhjqfBPVGRUeGjaf-122" vertex="1" connectable="0">
          <mxGeometry x="-0.5173" y="-4" relative="1" as="geometry">
            <mxPoint as="offset" />
          </mxGeometry>
        </mxCell>
        <mxCell id="ef_AyhjqfBPVGRUeGjaf-124" value="(scanf_s(&quot;%lf&quot;, &amp;amp;value) != 1)" style="rhombus;whiteSpace=wrap;html=1;" parent="1" vertex="1">
          <mxGeometry x="-819.05" y="992" width="290" height="150" as="geometry" />
        </mxCell>
        <mxCell id="ef_AyhjqfBPVGRUeGjaf-125" value="" style="edgeStyle=orthogonalEdgeStyle;rounded=0;orthogonalLoop=1;jettySize=auto;html=1;" parent="1" source="ef_AyhjqfBPVGRUeGjaf-126" target="ef_AyhjqfBPVGRUeGjaf-130" edge="1">
          <mxGeometry relative="1" as="geometry" />
        </mxCell>
        <mxCell id="ef_AyhjqfBPVGRUeGjaf-126" value="&lt;div style=&quot;background-color: rgb(255, 255, 255);&quot;&gt;&lt;pre style=&quot;&quot;&gt;&lt;font style=&quot;&quot;&gt;&lt;font face=&quot;Helvetica&quot;&gt;&lt;span style=&quot;white-space: normal;&quot;&gt;double_input&lt;/span&gt;&lt;/font&gt;&lt;font face=&quot;JetBrains Mono, monospace&quot; color=&quot;#202020&quot;&gt;&lt;br&gt;&lt;/font&gt;&lt;/font&gt;&lt;/pre&gt;&lt;/div&gt;" style="strokeWidth=1;html=1;shape=mxgraph.flowchart.terminator;whiteSpace=wrap;" parent="1" vertex="1">
          <mxGeometry x="-819.55" y="820" width="291" height="60" as="geometry" />
        </mxCell>
        <mxCell id="ef_AyhjqfBPVGRUeGjaf-127" value="&lt;font style=&quot;font-size: 12px;&quot;&gt;abort();&lt;/font&gt;" style="strokeWidth=1;html=1;shape=mxgraph.flowchart.terminator;whiteSpace=wrap;" parent="1" vertex="1">
          <mxGeometry x="-901.05" y="1131" width="199" height="60" as="geometry" />
        </mxCell>
        <mxCell id="ef_AyhjqfBPVGRUeGjaf-128" value="&lt;font style=&quot;font-size: 12px;&quot;&gt;value;&lt;/font&gt;" style="strokeWidth=1;html=1;shape=mxgraph.flowchart.terminator;whiteSpace=wrap;" parent="1" vertex="1">
          <mxGeometry x="-650.05" y="1131" width="189" height="60" as="geometry" />
        </mxCell>
        <mxCell id="ef_AyhjqfBPVGRUeGjaf-129" value="" style="edgeStyle=orthogonalEdgeStyle;rounded=0;orthogonalLoop=1;jettySize=auto;html=1;" parent="1" source="ef_AyhjqfBPVGRUeGjaf-130" target="ef_AyhjqfBPVGRUeGjaf-124" edge="1">
          <mxGeometry relative="1" as="geometry" />
        </mxCell>
        <mxCell id="ef_AyhjqfBPVGRUeGjaf-130" value="double value = 0;" style="rounded=0;whiteSpace=wrap;html=1;" parent="1" vertex="1">
          <mxGeometry x="-821.05" y="906" width="294" height="60" as="geometry" />
        </mxCell>
        <mxCell id="3CCN2-07_qu0L879t1h9-1" value="" style="edgeStyle=orthogonalEdgeStyle;rounded=0;orthogonalLoop=1;jettySize=auto;html=1;" parent="1" source="3CCN2-07_qu0L879t1h9-2" target="3CCN2-07_qu0L879t1h9-3" edge="1">
          <mxGeometry relative="1" as="geometry" />
        </mxCell>
        <mxCell id="3CCN2-07_qu0L879t1h9-2" value="Начало" style="strokeWidth=1;html=1;shape=mxgraph.flowchart.terminator;whiteSpace=wrap;" parent="1" vertex="1">
          <mxGeometry x="934" y="257" width="245.5" height="60" as="geometry" />
        </mxCell>
        <mxCell id="3CCN2-07_qu0L879t1h9-9" value="" style="edgeStyle=orthogonalEdgeStyle;rounded=0;orthogonalLoop=1;jettySize=auto;html=1;" parent="1" source="3CCN2-07_qu0L879t1h9-3" target="3CCN2-07_qu0L879t1h9-4" edge="1">
          <mxGeometry relative="1" as="geometry" />
        </mxCell>
        <mxCell id="3CCN2-07_qu0L879t1h9-3" value="const double a = get_positive_double();" style="shape=process;whiteSpace=wrap;html=1;backgroundOutline=1;" parent="1" vertex="1">
          <mxGeometry x="935.5" y="360" width="242.5" height="70" as="geometry" />
        </mxCell>
        <mxCell id="3CCN2-07_qu0L879t1h9-10" value="" style="edgeStyle=orthogonalEdgeStyle;rounded=0;orthogonalLoop=1;jettySize=auto;html=1;" parent="1" source="3CCN2-07_qu0L879t1h9-4" target="3CCN2-07_qu0L879t1h9-5" edge="1">
          <mxGeometry relative="1" as="geometry" />
        </mxCell>
        <mxCell id="3CCN2-07_qu0L879t1h9-4" value="const double b = get_positive_double();" style="shape=process;whiteSpace=wrap;html=1;backgroundOutline=1;" parent="1" vertex="1">
          <mxGeometry x="935.5" y="473" width="242.5" height="70" as="geometry" />
        </mxCell>
        <mxCell id="3CCN2-07_qu0L879t1h9-11" value="" style="edgeStyle=orthogonalEdgeStyle;rounded=0;orthogonalLoop=1;jettySize=auto;html=1;" parent="1" source="3CCN2-07_qu0L879t1h9-5" target="3CCN2-07_qu0L879t1h9-6" edge="1">
          <mxGeometry relative="1" as="geometry" />
        </mxCell>
        <mxCell id="3CCN2-07_qu0L879t1h9-5" value="const double h = get_positive_double();" style="shape=process;whiteSpace=wrap;html=1;backgroundOutline=1;" parent="1" vertex="1">
          <mxGeometry x="935.5" y="578" width="242.5" height="70" as="geometry" />
        </mxCell>
        <mxCell id="3CCN2-07_qu0L879t1h9-12" value="" style="edgeStyle=orthogonalEdgeStyle;rounded=0;orthogonalLoop=1;jettySize=auto;html=1;" parent="1" source="3CCN2-07_qu0L879t1h9-6" target="ef_AyhjqfBPVGRUeGjaf-68" edge="1">
          <mxGeometry relative="1" as="geometry" />
        </mxCell>
        <mxCell id="3CCN2-07_qu0L879t1h9-6" value="const double eps = get_positive_double();" style="shape=process;whiteSpace=wrap;html=1;backgroundOutline=1;" parent="1" vertex="1">
          <mxGeometry x="935.5" y="690" width="242.5" height="70" as="geometry" />
        </mxCell>
        <mxCell id="3CCN2-07_qu0L879t1h9-8" style="edgeStyle=orthogonalEdgeStyle;rounded=0;orthogonalLoop=1;jettySize=auto;html=1;entryX=1;entryY=0.5;entryDx=0;entryDy=0;entryPerimeter=0;" parent="1" source="ef_AyhjqfBPVGRUeGjaf-68" target="ef_AyhjqfBPVGRUeGjaf-71" edge="1">
          <mxGeometry relative="1" as="geometry">
            <Array as="points">
              <mxPoint x="1188" y="848" />
              <mxPoint x="1188" y="1132" />
            </Array>
          </mxGeometry>
        </mxCell>
        <mxCell id="3CCN2-07_qu0L879t1h9-13" value="" style="edgeStyle=orthogonalEdgeStyle;rounded=0;orthogonalLoop=1;jettySize=auto;html=1;" parent="1" source="3CCN2-07_qu0L879t1h9-14" target="3CCN2-07_qu0L879t1h9-19" edge="1">
          <mxGeometry relative="1" as="geometry" />
        </mxCell>
        <mxCell id="3CCN2-07_qu0L879t1h9-14" value="(fabsl(curr) &amp;gt;= eps - DBL_EPSILON)" style="shape=hexagon;perimeter=hexagonPerimeter2;whiteSpace=wrap;html=1;fixedSize=1;" parent="1" vertex="1">
          <mxGeometry x="300" y="943" width="283.75" height="79" as="geometry" />
        </mxCell>
        <mxCell id="3CCN2-07_qu0L879t1h9-15" value="sum;" style="strokeWidth=1;html=1;shape=mxgraph.flowchart.terminator;whiteSpace=wrap;" parent="1" vertex="1">
          <mxGeometry x="315" y="1364" width="245.5" height="60" as="geometry" />
        </mxCell>
        <mxCell id="3CCN2-07_qu0L879t1h9-31" value="" style="edgeStyle=orthogonalEdgeStyle;rounded=0;orthogonalLoop=1;jettySize=auto;html=1;" parent="1" source="3CCN2-07_qu0L879t1h9-19" target="3CCN2-07_qu0L879t1h9-28" edge="1">
          <mxGeometry relative="1" as="geometry" />
        </mxCell>
        <mxCell id="3CCN2-07_qu0L879t1h9-19" value="sum += curr;" style="rounded=0;whiteSpace=wrap;html=1;" parent="1" vertex="1">
          <mxGeometry x="305.75" y="1060" width="271.25" height="62" as="geometry" />
        </mxCell>
        <mxCell id="3CCN2-07_qu0L879t1h9-20" style="edgeStyle=orthogonalEdgeStyle;rounded=0;orthogonalLoop=1;jettySize=auto;html=1;entryX=1;entryY=0.5;entryDx=0;entryDy=0;entryPerimeter=0;" parent="1" source="3CCN2-07_qu0L879t1h9-14" target="3CCN2-07_qu0L879t1h9-15" edge="1">
          <mxGeometry relative="1" as="geometry">
            <Array as="points">
              <mxPoint x="623" y="983" />
              <mxPoint x="623" y="1394" />
            </Array>
          </mxGeometry>
        </mxCell>
        <mxCell id="3CCN2-07_qu0L879t1h9-33" value="" style="edgeStyle=orthogonalEdgeStyle;rounded=0;orthogonalLoop=1;jettySize=auto;html=1;" parent="1" source="3CCN2-07_qu0L879t1h9-21" target="3CCN2-07_qu0L879t1h9-24" edge="1">
          <mxGeometry relative="1" as="geometry" />
        </mxCell>
        <mxCell id="3CCN2-07_qu0L879t1h9-21" value="long double sum_series(const double x, const long double eps)" style="strokeWidth=1;html=1;shape=mxgraph.flowchart.terminator;whiteSpace=wrap;" parent="1" vertex="1">
          <mxGeometry x="294.38" y="548" width="294" height="71" as="geometry" />
        </mxCell>
        <mxCell id="3CCN2-07_qu0L879t1h9-34" value="" style="edgeStyle=orthogonalEdgeStyle;rounded=0;orthogonalLoop=1;jettySize=auto;html=1;" parent="1" source="3CCN2-07_qu0L879t1h9-24" target="3CCN2-07_qu0L879t1h9-26" edge="1">
          <mxGeometry relative="1" as="geometry" />
        </mxCell>
        <mxCell id="3CCN2-07_qu0L879t1h9-24" value="long double curr = 1.0;" style="rounded=0;whiteSpace=wrap;html=1;" parent="1" vertex="1">
          <mxGeometry x="301.38" y="648" width="281" height="59.5" as="geometry" />
        </mxCell>
        <mxCell id="3CCN2-07_qu0L879t1h9-35" value="" style="edgeStyle=orthogonalEdgeStyle;rounded=0;orthogonalLoop=1;jettySize=auto;html=1;" parent="1" source="3CCN2-07_qu0L879t1h9-26" target="3CCN2-07_qu0L879t1h9-27" edge="1">
          <mxGeometry relative="1" as="geometry" />
        </mxCell>
        <mxCell id="3CCN2-07_qu0L879t1h9-26" value="long double sum = 0;" style="rounded=0;whiteSpace=wrap;html=1;" parent="1" vertex="1">
          <mxGeometry x="300.5" y="740" width="283.25" height="60" as="geometry" />
        </mxCell>
        <mxCell id="3CCN2-07_qu0L879t1h9-36" value="" style="edgeStyle=orthogonalEdgeStyle;rounded=0;orthogonalLoop=1;jettySize=auto;html=1;" parent="1" source="3CCN2-07_qu0L879t1h9-27" target="3CCN2-07_qu0L879t1h9-14" edge="1">
          <mxGeometry relative="1" as="geometry" />
        </mxCell>
        <mxCell id="3CCN2-07_qu0L879t1h9-27" value="int n = 1;" style="rounded=0;whiteSpace=wrap;html=1;" parent="1" vertex="1">
          <mxGeometry x="297.75" y="838" width="288.25" height="58" as="geometry" />
        </mxCell>
        <mxCell id="3CCN2-07_qu0L879t1h9-32" value="" style="edgeStyle=orthogonalEdgeStyle;rounded=0;orthogonalLoop=1;jettySize=auto;html=1;" parent="1" source="3CCN2-07_qu0L879t1h9-28" target="3CCN2-07_qu0L879t1h9-30" edge="1">
          <mxGeometry relative="1" as="geometry" />
        </mxCell>
        <mxCell id="3CCN2-07_qu0L879t1h9-28" value="curr *= 2 * x / n;" style="rounded=0;whiteSpace=wrap;html=1;" parent="1" vertex="1">
          <mxGeometry x="300.88" y="1154" width="281" height="59.5" as="geometry" />
        </mxCell>
        <mxCell id="3CCN2-07_qu0L879t1h9-30" value="n++;" style="rounded=0;whiteSpace=wrap;html=1;" parent="1" vertex="1">
          <mxGeometry x="299.38" y="1252" width="284" height="55" as="geometry" />
        </mxCell>
      </root>
    </mxGraphModel>
  </diagram>
</mxfile>
